<?xml version="1.0" encoding="iso-8859-1"?>
<!-- Uploaded to: SVG Repo, www.svgrepo.com, Generator: SVG Repo Mixer Tools -->
<!DOCTYPE svg PUBLIC "-//W3C//DTD SVG 1.1//EN" "http://www.w3.org/Graphics/SVG/1.1/DTD/svg11.dtd">
<svg fill="#000000" version="1.1" id="Capa_1" xmlns="http://www.w3.org/2000/svg" xmlns:xlink="http://www.w3.org/1999/xlink" 
	 width="800px" height="800px" viewBox="0 0 534.561 534.561"
	 xml:space="preserve">
<g>
	<g>
		<g>
			<path d="M114.23,195.561c4.8,19.3,17.4,34.2,32.3,39.3c17.4,57.2,62.3,116.7,122.9,116.7c60.601,0,105.3-59.3,122.8-116.7
				c14.9-5.2,27.4-20.2,32.301-39.3c6.898-27.4-3.9-53.1-24.5-59.4c0-1.1,0-2.2,0.199-3.2c1.1-5.8,7.6-11.3,7.6-17.5
				c0-6.2-6.4-11.6-7.6-17.5c-1.1-5.9,2.699-13.4,0.4-19c-2.301-5.6-10.201-8.3-13.4-13.4c-3.1-5-2.1-13.4-6.199-18
				c-3.9-4.5-12.4-4.5-17-8.5c-4.602-3.8-5.9-12.2-11.201-15.5c-5-3.2-13.199-1-18.699-3.6c-5.4-2.6-8.801-10.3-14.701-12.2
				c-5.6-1.9-13.1,2.1-19,0.9c-5.799-1.2-10.898-8.1-16.999-8.6c-5.899-0.7-12.3,4.9-18.5,4.9s-12.6-5.5-18.5-4.9
				c-6.2,0.7-11.2,7.4-17,8.6c-6,1.3-13.4-2.8-19-0.9c-5.8,1.9-9.3,9.6-14.7,12.2c-5.6,2.6-13.7,0.4-18.7,3.6
				c-5.2,3.2-6.6,11.6-11.2,15.5c-4.7,3.9-13.1,4-17,8.5c-4,4.6-3,13-6.2,18c-3.2,5.2-11.2,7.8-13.4,13.4c-2.2,5.6,1.6,13.1,0.4,19
				c-1.1,5.8-7.6,11.3-7.6,17.5c0,6.2,6.4,11.6,7.6,17.5c0.4,2.6,0.1,5.4-0.3,8.2C115.031,151.461,108.531,172.861,114.23,195.561z
				 M404.631,190.661c-3.9,15.5-14,24.6-22,25.8l-6.701,0.9l-1.799,6.5c-14.5,53.4-55.201,107.5-104.801,107.5
				s-90.2-54.1-104.799-107.6l-1.8-6.5l-6.7-0.9c-8-1.1-18.1-10.3-22-25.8c-2.9-11.5-1-23.2,3.9-29.8c2-2.7,4.4-4.7,7.3-5.4
				c0.7-0.1,1.3-0.2,2.2-0.2c0.6,0,1.1,0,1.7,0.1l9.5,0.9l1.5-9.5c9.7-64.8,53.6-108.3,109.2-108.3s99.6,43.6,109.301,108.4l1.5,9.5
				l9.5-0.9c1.5-0.1,2.799-0.1,3.9,0.1c1.1,0.2,2.1,0.8,3.1,1.3C404.531,161.661,408.23,176.161,404.631,190.661z"/>
			<path d="M224.031,245.861c-16.1,16.1-14.4,43.9-14.4,43.9s27.8,1.7,43.9-14.4c16.1-16.1,14.4-43.899,14.4-43.899
				S240.13,229.761,224.031,245.861z"/>
			<path d="M268.23,231.461c0,0-1.7,27.8,14.4,43.899c16.1,16.101,43.9,14.4,43.9,14.4s1.699-27.8-14.4-43.9
				C296.131,229.761,268.23,231.461,268.23,231.461z"/>
		</g>
		<path d="M384.23,305.761c-12.801,21.6-27.4,39.899-46.801,49.8c-40.199,20.6-69.999,37.2-69.999,37.2l-0.1-0.1v-0.4l-0.4,0.2
			l-0.4-0.2v0.4l-0.1,0.1c0,0-29.9-16.7-70-37.2c-19.5-10-34.2-28.2-46.8-49.8c-59.5,24.2-100.9,79.7-100.9,128.2
			c0,51.1,0,100.6,0,100.6h218.1h0.9h218.1c0,0,0-49.5,0-100.6C485.33,385.561,443.73,329.961,384.23,305.761z"/>
	</g>
</g>
</svg>